<?xml version="1.0" encoding="UTF-8" standalone="no"?>
<!-- Created with Inkscape (http://www.inkscape.org/) -->

<svg
   width="1080"
   height="600"
   viewBox="0 0 285.75 158.75002"
   version="1.1"
   id="svg5"
   inkscape:version="1.1 (c68e22c387, 2021-05-23)"
   sodipodi:docname="drawing.svg"
   xmlns:inkscape="http://www.inkscape.org/namespaces/inkscape"
   xmlns:sodipodi="http://sodipodi.sourceforge.net/DTD/sodipodi-0.dtd"
   xmlns="http://www.w3.org/2000/svg"
   xmlns:svg="http://www.w3.org/2000/svg">
  <sodipodi:namedview
     id="namedview7"
     pagecolor="#ffffff"
     bordercolor="#999999"
     borderopacity="1"
     inkscape:pageshadow="0"
     inkscape:pageopacity="0"
     inkscape:pagecheckerboard="0"
     inkscape:document-units="px"
     showgrid="false"
     inkscape:zoom="0.5512814"
     inkscape:cx="898.81502"
     inkscape:cy="467.09358"
     inkscape:window-width="1920"
     inkscape:window-height="1027"
     inkscape:window-x="-8"
     inkscape:window-y="-8"
     inkscape:window-maximized="1"
     inkscape:current-layer="layer1" />
  <defs
     id="defs2">
    <linearGradient
       id="linearGradient14720"
       inkscape:swatch="solid">
      <stop
         style="stop-color:#ff5555;stop-opacity:1;"
         offset="0"
         id="stop14718" />
    </linearGradient>
    <linearGradient
       id="linearGradient12690"
       inkscape:swatch="gradient">
      <stop
         style="stop-color:#ffb655;stop-opacity:0"
         offset="0"
         id="stop12686" />
      <stop
         style="stop-color:#ff5555;stop-opacity:0;"
         offset="1"
         id="stop12688" />
    </linearGradient>
  </defs>
  <g
     inkscape:label="Layer 1"
     inkscape:groupmode="layer"
     id="layer1">
    <path
       id="rect23886"
       style="fill:#644050;fill-opacity:1;stroke:#000000;stroke-width:1.26495;stroke-linecap:round;stroke-linejoin:round;stroke-miterlimit:4;stroke-dasharray:none"
       d="m 52.59936,58.755998 v 21.38356 H 93.046827 L 92.880553,58.755998 H 82.135034 75.75012 Z" />
    <path
       id="path23978"
       style="fill:#ffcb55;fill-opacity:1;stroke:#000000;stroke-width:1.26495;stroke-linecap:round;stroke-linejoin:round;stroke-miterlimit:4;stroke-dasharray:none"
       d="M 18.60634,80.139558 H 52.59936 V 58.755998 47.949078 H 18.60634 Z" />
    <path
       id="path23976"
       style="fill:#fc9331;fill-opacity:1;stroke:#000000;stroke-width:1.26495;stroke-linecap:round;stroke-linejoin:round;stroke-miterlimit:4;stroke-dasharray:none"
       d="M 52.59936,98.782268 V 80.139558 H 18.60634 V 109.7892 h 33.99302 z" />
    <path
       id="path23974"
       style="fill:#1c2a35;fill-opacity:1;stroke:#000000;stroke-width:1.26495;stroke-linecap:round;stroke-linejoin:round;stroke-miterlimit:4;stroke-dasharray:none"
       d="M 93.191939,98.782268 93.046827,80.139558 H 52.59936 v 18.64271 h 23.661067 5.874607 10.745519 z" />
    <path
       id="path23972"
       style="fill:#fc9331;fill-opacity:1;stroke:#000000;stroke-width:1.26495;stroke-linecap:round;stroke-linejoin:round;stroke-miterlimit:4;stroke-dasharray:none"
       d="M 116.12805,80.139558 H 93.046827 l 0.145112,18.64271 a 10.067856,14.351903 0 0 1 0.504868,1.17356 10.067856,14.351903 0 0 1 0.330734,1.023412 10.067856,14.351903 0 0 1 0.2739,1.05684 10.067856,14.351903 0 0 1 0.214041,1.0846 10.067856,14.351903 0 0 1 0.154179,1.10543 10.067856,14.351903 0 0 1 0.09311,1.1193 10.067856,14.351903 0 0 1 0.03084,1.12562 10.067856,14.351903 0 0 1 0,0.0549 10.067856,14.351903 0 0 1 0,0.0549 10.067856,14.351903 0 0 1 -6.04e-4,0.0555 10.067856,14.351903 0 0 1 -6.03e-4,0.0549 10.067856,14.351903 0 0 1 -6.07e-4,0.0549 10.067856,14.351903 0 0 1 -6.04e-4,0.0549 10.067856,14.351903 0 0 1 -0.0012,0.0549 10.067856,14.351903 0 0 1 -0.0012,0.0549 10.067856,14.351903 0 0 1 -0.0012,0.0549 10.067856,14.351903 0 0 1 -0.0012,0.0555 10.067856,14.351903 0 0 1 -0.0012,0.0549 10.067856,14.351903 0 0 1 -0.0018,0.0549 10.067856,14.351903 0 0 1 -0.0018,0.0549 10.067856,14.351903 0 0 1 -0.0024,0.0549 10.067856,14.351903 0 0 1 -0.0018,0.0549 10.067856,14.351903 0 0 1 -0.0024,0.0549 10.067856,14.351903 0 0 1 -0.0024,0.0549 10.067856,14.351903 0 0 1 -0.0024,0.0549 10.067856,14.351903 0 0 1 -0.003,0.0549 10.067856,14.351903 0 0 1 -0.003,0.0549 10.067856,14.351903 0 0 1 -0.003,0.0549 10.067856,14.351903 0 0 1 -0.003,0.0543 10.067856,14.351903 0 0 1 -0.003,0.0549 10.067856,14.351903 0 0 1 -0.0036,0.0549 10.067856,14.351903 0 0 1 -0.0036,0.0549 10.067856,14.351903 0 0 1 -0.0036,0.0549 10.067856,14.351903 0 0 1 -0.0042,0.0543 10.067856,14.351903 0 0 1 -0.0036,0.0549 10.067856,14.351903 0 0 1 -0.0042,0.0549 10.067856,14.351903 0 0 1 -0.0048,0.0543 10.067856,14.351903 0 0 1 -0.0042,0.0549 10.067856,14.351903 0 0 1 -0.0048,0.0543 10.067856,14.351903 0 0 1 -0.0048,0.0549 10.067856,14.351903 0 0 1 -0.0048,0.0543 10.067856,14.351903 0 0 1 -0.0048,0.0549 10.067856,14.351903 0 0 1 -0.0054,0.0543 10.067856,14.351903 0 0 1 -0.0054,0.0543 10.067856,14.351903 0 0 1 -0.0054,0.0549 10.067856,14.351903 0 0 1 -0.0054,0.0543 10.067856,14.351903 0 0 1 -0.006,0.0543 10.067856,14.351903 0 0 1 -0.006,0.0543 10.067856,14.351903 0 0 1 -0.154179,1.10479 10.067856,14.351903 0 0 1 -0.214041,1.0846 10.067856,14.351903 0 0 1 -0.2739,1.05748 10.067856,14.351903 0 0 1 -0.330734,1.0234 10.067856,14.351903 0 0 1 -0.386358,0.98302 10.067856,14.351903 0 0 1 -0.439567,0.93696 10.067856,14.351903 0 0 1 -0.489148,0.88523 10.067856,14.351903 0 0 1 -0.536914,0.82717 10.067856,14.351903 0 0 1 -0.580447,0.76535 10.067856,14.351903 0 0 1 -0.620351,0.69783 10.067856,14.351903 0 0 1 -0.65784,0.6259 10.067856,14.351903 0 0 1 -0.689886,0.55082 10.067856,14.351903 0 0 1 -0.717699,0.47132 10.067856,14.351903 0 0 1 -0.741278,0.38993 10.067856,14.351903 0 0 1 -0.761234,0.30601 10.067856,14.351903 0 0 1 -0.775136,0.22021 10.067856,14.351903 0 0 1 -0.784814,0.13249 10.067856,14.351903 0 0 1 -0.790252,0.0442 10.067856,14.351903 0 0 1 -0.789649,-0.0442 10.067856,14.351903 0 0 1 -0.785418,-0.13249 10.067856,14.351903 0 0 1 -1.015782,-0.34829 v 16.61924 h 21.663364 l 3.97968,-0.0107 0.97769,-0.55839 c 0.16115,-0.0921 0.31934,-0.18984 0.47464,-0.29276 0.15528,-0.10293 0.30785,-0.21082 0.4571,-0.32431 0.14925,-0.11343 0.29533,-0.23211 0.43836,-0.35586 0.0573,-0.0497 0.11175,-0.1039 0.16808,-0.15521 a 10.823818,15.429541 0 0 0 0.004,-0.003 10.823818,15.429541 0 0 0 0.4952,-0.38298 10.823818,15.429541 0 0 0 0.4831,-0.42211 10.823818,15.429541 0 0 0 0.46677,-0.45744 10.823818,15.429541 0 0 0 0.44985,-0.49214 10.823818,15.429541 0 0 0 0.4311,-0.52432 10.823818,15.429541 0 0 0 0.41055,-0.5565 10.823818,15.429541 0 0 0 0.39059,-0.58552 10.823818,15.429541 0 0 0 0.36762,-0.61455 10.823818,15.429541 0 0 0 0.34464,-0.64105 10.823818,15.429541 0 0 0 0.32166,-0.66565 10.823818,15.429541 0 0 0 0.29567,-0.68836 10.823818,15.429541 0 0 0 0.27027,-0.70983 10.823818,15.429541 0 0 0 0.24427,-0.72937 10.823818,15.429541 0 0 0 0.21706,-0.74642 10.823818,15.429541 0 0 0 0.18864,-0.76156 10.823818,15.429541 0 0 0 0.16144,-0.77417 10.823818,15.429541 0 0 0 0.13181,-0.78554 10.823818,15.429541 0 0 0 0.10339,-0.79436 10.823818,15.429541 0 0 0 0.0568,-0.61392 10.823818,15.429541 0 0 0 0.0175,-0.18676 10.823818,15.429541 0 0 0 0.0441,-0.80573 10.823818,15.429541 0 0 0 0.0151,-0.80698 10.823818,15.429541 0 0 0 -0.0768,-1.38746 z" />
    <path
       id="path23970"
       style="fill:#ffcb55;fill-opacity:1;stroke:#000000;stroke-width:1.26495;stroke-linecap:round;stroke-linejoin:round;stroke-miterlimit:4;stroke-dasharray:none"
       d="m 82.135034,20.620694 v 16.708211 a 10.067856,14.351905 0 0 1 0.605238,-0.20695 10.067856,14.351905 0 0 1 0.78481,-0.1325 10.067856,14.351905 0 0 1 0.790256,-0.0442 10.067856,14.351905 0 0 1 0.544772,0.0215 10.067856,14.351905 0 0 1 0.543564,0.0631 10.067856,14.351905 0 0 1 0.540543,0.10474 10.067856,14.351905 0 0 1 0.535098,0.14638 10.067856,14.351905 0 0 1 0.529658,0.18739 10.067856,14.351905 0 0 1 0.521192,0.2284 10.067856,14.351905 0 0 1 0.511521,0.26816 10.067856,14.351905 0 0 1 0.50124,0.30664 10.067856,14.351905 0 0 1 0.487937,0.34576 10.067856,14.351905 0 0 1 0.475239,0.38236 10.067856,14.351905 0 0 1 0.459522,0.418953 10.067856,14.351905 0 0 1 0.442591,0.45302 10.067856,14.351905 0 0 1 0.424451,0.48709 10.067856,14.351905 0 0 1 0.406313,0.51928 10.067856,14.351905 0 0 1 0.38515,0.54956 10.067856,14.351905 0 0 1 0.364595,0.57858 10.067856,14.351905 0 0 1 0.341615,0.60571 10.067856,14.351905 0 0 1 0.318036,0.63158 10.067856,14.351905 0 0 1 0.293248,0.65493 10.067856,14.351905 0 0 1 0.268457,0.67638 10.067856,14.351905 0 0 1 0.242456,0.69657 10.067856,14.351905 0 0 1 0.215249,0.71361 10.067856,14.351905 0 0 1 0.188043,0.73001 10.067856,14.351905 0 0 1 0.160225,0.74263 10.067856,14.351905 0 0 1 0.131205,0.75461 10.067856,14.351905 0 0 1 0.102788,0.76345 10.067856,14.351905 0 0 1 0.07437,0.76977 10.067856,14.351905 0 0 1 0.04414,0.7748 10.067856,14.351905 0 0 1 6.03e-4,0.0189 10.067856,14.351905 0 0 1 6.04e-4,0.0189 10.067856,14.351905 0 0 1 6.04e-4,0.0189 10.067856,14.351905 0 0 1 6.07e-4,0.0189 10.067856,14.351905 0 0 1 6.03e-4,0.0189 10.067856,14.351905 0 0 1 6.04e-4,0.0189 10.067856,14.351905 0 0 1 6.07e-4,0.0189 10.067856,14.351905 0 0 1 6.03e-4,0.0189 10.067856,14.351905 0 0 1 6.04e-4,0.0189 10.067856,14.351905 0 0 1 6.07e-4,0.0189 10.067856,14.351905 0 0 1 6.03e-4,0.0189 10.067856,14.351905 0 0 1 6.04e-4,0.0196 10.067856,14.351905 0 0 1 6.07e-4,0.0189 10.067856,14.351905 0 0 1 6.03e-4,0.0189 10.067856,14.351905 0 0 1 0,0.0189 10.067856,14.351905 0 0 1 6.04e-4,0.0189 10.067856,14.351905 0 0 1 6.07e-4,0.0189 10.067856,14.351905 0 0 1 0,0.0189 10.067856,14.351905 0 0 1 6.04e-4,0.0189 10.067856,14.351905 0 0 1 6.03e-4,0.0189 10.067856,14.351905 0 0 1 0,0.0189 10.067856,14.351905 0 0 1 6.07e-4,0.0189 10.067856,14.351905 0 0 1 0,0.0189 10.067856,14.351905 0 0 1 6.04e-4,0.0189 10.067856,14.351905 0 0 1 0,0.0189 10.067856,14.351905 0 0 1 6.03e-4,0.0189 10.067856,14.351905 0 0 1 0,0.0189 10.067856,14.351905 0 0 1 6.04e-4,0.0189 10.067856,14.351905 0 0 1 0,0.0189 10.067856,14.351905 0 0 1 0,0.0189 10.067856,14.351905 0 0 1 6.07e-4,0.0196 10.067856,14.351905 0 0 1 0,0.0189 10.067856,14.351905 0 0 1 0,0.0189 10.067856,14.351905 0 0 1 0,0.0189 10.067856,14.351905 0 0 1 6.03e-4,0.0189 10.067856,14.351905 0 0 1 0,0.0189 10.067856,14.351905 0 0 1 0,0.0189 10.067856,14.351905 0 0 1 0,0.0189 10.067856,14.351905 0 0 1 0,0.0189 10.067856,14.351905 0 0 1 0,0.0189 10.067856,14.351905 0 0 1 0,0.0189 10.067856,14.351905 0 0 1 -0.03084,1.12625 10.067856,14.351905 0 0 1 -0.09311,1.11868 10.067856,14.351905 0 0 1 -0.154182,1.10542 10.067856,14.351905 0 0 1 -0.214645,1.08461 10.067856,14.351905 0 0 1 -0.273293,1.05684 10.067856,14.351905 0 0 1 -0.331337,1.0234 10.067856,14.351905 0 0 1 -0.405106,0.94327 l 0.166274,21.38356 H 116.12805 V 36.049965 a 10.823819,15.429542 0 0 0 0,-0.0189 10.823819,15.429542 0 0 0 0,-0.0189 10.823819,15.429542 0 0 0 0,-0.0183 10.823819,15.429542 0 0 0 0,-0.0189 10.823819,15.429542 0 0 0 0,-0.0189 10.823819,15.429542 0 0 0 0,-0.0189 10.823819,15.429542 0 0 0 0,-0.0183 10.823819,15.429542 0 0 0 -6e-4,-0.0189 10.823819,15.429542 0 0 0 0,-0.0189 10.823819,15.429542 0 0 0 0,-0.0189 10.823819,15.429542 0 0 0 0,-0.0183 10.823819,15.429542 0 0 0 -6.1e-4,-0.0189 10.823819,15.429542 0 0 0 0,-0.0189 10.823819,15.429542 0 0 0 0,-0.0189 10.823819,15.429542 0 0 0 -6e-4,-0.0189 10.823819,15.429542 0 0 0 0,-0.0183 10.823819,15.429542 0 0 0 -6.1e-4,-0.0189 10.823819,15.429542 0 0 0 0,-0.0189 10.823819,15.429542 0 0 0 -6e-4,-0.0189 10.823819,15.429542 0 0 0 0,-0.0183 10.823819,15.429542 0 0 0 -6.1e-4,-0.0189 10.823819,15.429542 0 0 0 0,-0.0189 10.823819,15.429542 0 0 0 -6e-4,-0.0189 10.823819,15.429542 0 0 0 0,-0.0183 10.823819,15.429542 0 0 0 -6.1e-4,-0.0189 10.823819,15.429542 0 0 0 -6e-4,-0.0189 10.823819,15.429542 0 0 0 0,-0.0183 10.823819,15.429542 0 0 0 -6.1e-4,-0.0189 10.823819,15.429542 0 0 0 -6e-4,-0.0189 10.823819,15.429542 0 0 0 -6.1e-4,-0.0189 10.823819,15.429542 0 0 0 0,-0.0183 10.823819,15.429542 0 0 0 -6e-4,-0.0189 10.823819,15.429542 0 0 0 -6.1e-4,-0.0189 10.823819,15.429542 0 0 0 -6e-4,-0.0189 10.823819,15.429542 0 0 0 -6e-4,-0.0183 10.823819,15.429542 0 0 0 -6.1e-4,-0.0189 10.823819,15.429542 0 0 0 -6e-4,-0.0189 10.823819,15.429542 0 0 0 -6.1e-4,-0.0189 10.823819,15.429542 0 0 0 -6e-4,-0.0183 10.823819,15.429542 0 0 0 -6.1e-4,-0.0189 10.823819,15.429542 0 0 0 -6e-4,-0.0189 10.823819,15.429542 0 0 0 -6.1e-4,-0.0183 10.823819,15.429542 0 0 0 -6e-4,-0.0189 10.823819,15.429542 0 0 0 -0.0447,-0.80572 10.823819,15.429542 0 0 0 -0.0738,-0.80068 10.823819,15.429542 0 0 0 -0.10339,-0.79437 10.823819,15.429542 0 0 0 -0.13242,-0.78553 10.823819,15.429542 0 0 0 -0.16083,-0.77418 10.823819,15.429542 0 0 0 -0.18925,-0.76156 10.823819,15.429542 0 0 0 -0.21646,-0.74641 10.823819,15.429542 0 0 0 -0.24427,-0.72938 10.823819,15.429542 0 0 0 -0.27027,-0.70982 10.823819,15.429542 0 0 0 -0.29627,-0.68837 10.823819,15.429542 0 0 0 -0.32045,-0.66628 10.823819,15.429542 0 0 0 -0.34525,-0.64042 10.823819,15.429542 0 0 0 -0.36822,-0.61454 10.823819,15.429542 0 0 0 -0.38999,-0.58553 10.823819,15.429542 0 0 0 -0.41115,-0.55649 10.823819,15.429542 0 0 0 -0.4311,-0.52432 10.823819,15.429542 0 0 0 -0.44924,-0.49215 10.823819,15.429542 0 0 0 -0.46678,-0.45744 10.823819,15.429542 0 0 0 -0.4831,-0.422102 10.823819,15.429542 0 0 0 -0.49822,-0.385511 10.823819,15.429542 0 0 0 -0.51151,-0.347653 10.823819,15.429542 0 0 0 -0.52362,-0.309166 10.823819,15.429542 0 0 0 -0.53389,-0.269414 10.823819,15.429542 0 0 0 -0.54356,-0.229667 10.823819,15.429542 0 0 0 -0.55082,-0.188656 10.823819,15.429542 0 0 0 -0.55747,-0.147009 10.823819,15.429542 0 0 0 -0.5617,-0.105372 10.823819,15.429542 0 0 0 -0.56473,-0.06372 10.823819,15.429542 0 0 0 -0.56654,-0.02082 z" />
    <path
       id="rect18518"
       style="fill:#5d84b2;fill-opacity:1;stroke:#000000;stroke-width:1.26495;stroke-linecap:round;stroke-linejoin:round;stroke-miterlimit:4;stroke-dasharray:none"
       d="m 258.05445,106.99811 c -0.15184,0.12514 -0.29944,0.25107 -0.45291,0.37547 -0.42763,0.34663 -0.86124,0.68955 -1.29721,1.02471 -0.43597,0.33517 -0.87435,0.66273 -1.31241,0.97806 -0.43804,0.31531 -0.8756,0.61902 -1.30948,0.90611 -0.43388,0.28709 -0.86442,0.55781 -1.28787,0.80828 -0.42343,0.25049 -0.83958,0.48035 -1.24632,0.68582 -0.20338,0.10275 -0.40436,0.19934 -0.60239,0.28926 -0.19802,0.0899 -0.39362,0.17343 -0.58552,0.24946 -0.64029,0.25374 -1.29267,0.50247 -1.95668,0.74621 -0.664,0.24372 -1.33961,0.48209 -2.02626,0.71601 -0.68665,0.23392 -1.38399,0.46341 -2.0922,0.68771 -0.70822,0.22431 -1.42702,0.44391 -2.15574,0.6588 -0.72872,0.21488 -1.46749,0.42484 -2.21564,0.63048 -0.74815,0.20565 -1.506,0.40684 -2.27252,0.60344 -0.76651,0.1966 -1.54196,0.38865 -2.32576,0.57639 -0.7838,0.18776 -1.57596,0.37087 -2.37599,0.54997 -0.80002,0.17909 -1.60741,0.35417 -2.42257,0.5248 -0.81518,0.17062 -1.63812,0.33727 -2.46737,0.49963 -0.82925,0.16234 -1.66505,0.32017 -2.5073,0.47444 -0.84226,0.15427 -1.69063,0.30479 -2.54483,0.45116 -0.8542,0.14637 -1.71426,0.28856 -2.57933,0.42724 -0.86507,0.13866 -1.73533,0.2734 -2.61019,0.40456 -1.74973,0.26232 -3.51781,0.5102 -5.30031,0.74364 -1.7825,0.23343 -3.57959,0.4525 -5.38629,0.65858 -1.8067,0.20608 -3.62333,0.39892 -5.44566,0.57918 -1.82234,0.18026 -3.65022,0.34817 -5.47964,0.50414 -1.82942,0.15596 -3.66028,0.30028 -5.48821,0.43349 -1.82793,0.13321 -3.65288,0.25522 -5.47076,0.36721 -1.8179,0.11199 -3.62867,0.21365 -5.42794,0.30595 -1.79928,0.0923 -3.58699,0.17554 -5.35909,0.24968 -1.7721,0.0742 -3.52849,0.13904 -5.26485,0.19655 -1.73637,0.0575 -3.45254,0.10726 -5.1446,0.14968 -1.69206,0.0424 -3.36034,0.0777 -4.99954,0.10659 -1.63921,0.0289 -3.24952,0.0516 -4.82729,0.0684 -1.57778,0.0169 -3.12244,0.0278 -4.63023,0.034 -1.50778,0.006 -2.97853,0.008 -4.40777,0.006 -1.42923,-0.003 -2.81717,-0.01 -4.15929,-0.0197 -2.68424,-0.0201 -5.18597,-0.0529 -7.47038,-0.0935 -2.2844,-0.0406 -4.35141,-0.0889 -6.16746,-0.13778 -0.93288,-0.0251 -1.59823,-0.0486 -2.39385,-0.0734 l -0.0997,13.73281 83.10538,-0.12458 9.2e-4,-0.0498 a 59.098127,56.492583 89.91411 0 0 0.88164,0.0473 59.098127,56.492583 89.91411 0 0 1.97164,-0.0389 59.098127,56.492583 89.91411 0 0 1.96913,-0.11084 59.098127,56.492583 89.91411 0 0 1.96356,-0.18277 59.098127,56.492583 89.91411 0 0 1.95683,-0.25406 59.098127,56.492583 89.91411 0 0 1.94703,-0.32596 59.098127,56.492583 89.91411 0 0 1.93544,-0.39598 59.098127,56.492583 89.91411 0 0 1.92082,-0.46726 59.098127,56.492583 89.91411 0 0 1.90379,-0.53665 59.098127,56.492583 89.91411 0 0 1.88433,-0.60601 59.098127,56.492583 89.91411 0 0 1.86368,-0.67413 59.098127,56.492583 89.91411 0 0 1.83999,-0.74222 59.098127,56.492583 89.91411 0 0 1.8139,-0.80845 59.098127,56.492583 89.91411 0 0 1.78538,-0.87465 59.098127,56.492583 89.91411 0 0 1.75566,-0.93897 59.098127,56.492583 89.91411 0 0 1.72351,-1.00264 59.098127,56.492583 89.91411 0 0 1.68835,-1.06505 59.098127,56.492583 89.91411 0 0 1.65198,-1.1262 59.098127,56.492583 89.91411 0 0 1.6138,-1.18546 59.098127,56.492583 89.91411 0 0 1.57261,-1.24407 59.098127,56.492583 89.91411 0 0 1.53079,-1.30016 59.098127,56.492583 89.91411 0 0 1.48597,-1.35561 59.098127,56.492583 89.91411 0 0 1.43993,-1.40918 59.098127,56.492583 89.91411 0 0 1.3921,-1.46022 59.098127,56.492583 89.91411 0 0 1.34244,-1.51126 59.098127,56.492583 89.91411 0 0 1.29157,-1.55848 59.098127,56.492583 89.91411 0 0 1.23831,-1.60511 59.098127,56.492583 89.91411 0 0 1.18442,-1.64919 59.098127,56.492583 89.91411 0 0 1.12812,-1.69138 59.098127,56.492583 89.91411 0 0 1.07184,-1.73167 59.098127,56.492583 89.91411 0 0 1.01253,-1.76945 59.098127,56.492583 89.91411 0 0 0.70179,-1.32984 z" />
    <path
       id="path18604"
       style="fill:#c7e2f9;fill-opacity:1;stroke:#000000;stroke-width:1.26495;stroke-linecap:round;stroke-linejoin:round;stroke-miterlimit:4;stroke-dasharray:none"
       d="m 257.14345,49.035848 c 0,0 -0.65519,-0.35274 -1.72757,-0.90346 -0.53621,-0.27534 -1.17658,-0.5999 -1.89153,-0.95494 -0.71493,-0.35504 -1.50449,-0.74056 -2.3386,-1.13663 -0.83412,-0.39607 -1.71285,-0.80277 -2.60656,-1.20121 -0.44686,-0.19921 -0.89741,-0.39662 -1.34801,-0.58918 -0.45059,-0.19256 -0.90108,-0.38034 -1.34797,-0.56142 -0.44687,-0.18107 -0.89041,-0.35506 -1.32613,-0.5198 -0.43571,-0.16476 -0.86419,-0.32014 -1.2813,-0.46373 -0.41711,-0.1436 -0.82303,-0.27555 -1.21409,-0.39315 -0.39106,-0.11762 -0.76692,-0.22132 -1.12448,-0.30812 -0.61007,-0.14808 -1.23031,-0.29354 -1.86049,-0.43635 -0.6302,-0.14281 -1.27038,-0.28288 -1.91975,-0.42049 -1.29873,-0.27525 -2.63467,-0.54024 -4.00446,-0.79531 -1.36979,-0.25507 -2.77361,-0.50004 -4.20693,-0.7357 -1.4333,-0.23564 -2.8965,-0.46165 -4.38581,-0.678633 -1.4893,-0.21698 -3.00457,-0.42508 -4.54233,-0.62414 -1.53776,-0.19907 -3.09779,-0.38904 -4.67648,-0.57094 -1.5787,-0.18191 -3.17617,-0.35544 -4.78827,-0.52093 -1.6121,-0.16549 -3.2391,-0.32301 -4.87707,-0.47285 -1.63797,-0.14983 -3.2866,-0.29238 -4.94291,-0.42732 -1.65631,-0.13492 -3.31985,-0.26229 -4.98698,-0.38307 -1.66712,-0.12079 -3.33827,-0.23466 -5.00869,-0.34204 -1.67041,-0.10739 -3.34063,-0.20818 -5.00681,-0.30293 -1.66616,-0.0947 -3.32818,-0.18351 -4.98257,-0.26636 -1.65439,-0.0828 -3.30088,-0.16001 -4.93597,-0.23173 -1.63509,-0.0717 -3.25873,-0.13833 -4.86698,-0.19965 -1.60825,-0.0613 -3.20115,-0.11719 -4.77504,-0.16889 -3.14778,-0.1034 -6.21902,-0.18877 -9.18416,-0.25817 -2.96513,-0.0694 -5.82386,-0.12308 -8.54612,-0.16448 -2.72226,-0.0414 -5.30819,-0.0699 -7.72735,-0.0894 -2.41914,-0.0195 -4.672,-0.0299 -6.72779,-0.0334 -2.05579,-0.004 -3.91469,-10e-4 -5.54689,0.006 -1.24672,0.005 -2.22867,0.0133 -3.19727,0.0206 l -0.24199,33.382133 -0.10773,14.85907 27.16548,-0.0407 8.71698,-0.0131 58.55553,-0.0878 a 26.006516,49.843418 89.91411 0 1 -0.0577,0.23039 26.006516,49.843418 89.91411 0 1 -0.31056,0.9595 26.006516,49.843418 89.91411 0 1 -0.37948,0.95268 26.006516,49.843418 89.91411 0 1 -0.44723,0.94457 26.006516,49.843418 89.91411 0 1 -0.51434,0.93522 26.006516,49.843418 89.91411 0 1 -0.58149,0.92458 26.006516,49.843418 89.91411 0 1 -0.64679,0.91332 26.006516,49.843418 89.91411 0 1 -0.71212,0.89955 26.006516,49.843418 89.91411 0 1 -0.77624,0.88512 26.006516,49.843418 89.91411 0 1 -0.83853,0.86945 26.006516,49.843418 89.91411 0 1 -0.90023,0.8525 26.006516,49.843418 89.91411 0 1 -0.96072,0.8343 26.006516,49.843418 89.91411 0 1 -1.02,0.81545 26.006516,49.843418 89.91411 0 1 -1.07747,0.79473 26.006516,49.843418 89.91411 0 1 -0.52186,0.35601 26.006516,49.843418 89.91411 0 1 -0.61188,0.41734 26.006516,49.843418 89.91411 0 1 -1.18819,0.75072 26.006516,49.843418 89.91411 0 1 -1.24082,0.72682 26.006516,49.843418 89.91411 0 1 -1.29226,0.7023 26.006516,49.843418 89.91411 0 1 -1.34127,0.67713 26.006516,49.843418 89.91411 0 1 -1.38907,0.65006 26.006516,49.843418 89.91411 0 1 -1.43447,0.62238 26.006516,49.843418 89.91411 0 1 -1.47804,0.59468 26.006516,49.843418 89.91411 0 1 -1.5192,0.56509 26.006516,49.843418 89.91411 0 1 -1.55854,0.534862 26.006516,49.843418 89.91411 0 1 -1.59608,0.50463 26.006516,49.843418 89.91411 0 1 -1.63059,0.4725 26.006516,49.843418 89.91411 0 1 -1.66329,0.44101 26.006516,49.843418 89.91411 0 1 -1.69357,0.40824 26.006516,49.843418 89.91411 0 1 -1.72203,0.37484 26.006516,49.843418 89.91411 0 1 -1.74688,0.34081 26.006516,49.843418 89.91411 0 1 -1.76991,0.30677 26.006516,49.843418 89.91411 0 1 -1.79112,0.27147 26.006516,49.843418 89.91411 0 1 -1.80871,0.2368 26.006516,49.843418 89.91411 0 1 -1.82448,0.20147 26.006516,49.843418 89.91411 0 1 -1.83722,0.16555 26.006516,49.843418 89.91411 0 1 -1.84817,0.13022 26.006516,49.843418 89.91411 0 1 -1.85548,0.0937 26.006516,49.843418 89.91411 0 1 -1.86098,0.0571 26.006516,49.843418 89.91411 0 1 -1.86405,0.0211 26.006516,49.843418 89.91411 0 1 -2.79467,-0.0368 26.006516,49.843418 89.91411 0 1 -2.78632,-0.11823 26.006516,49.843418 89.91411 0 1 -3.8635,-0.33681 l 0.0889,-9.702272 -6.73378,0.0101 -23.46092,0.0352 -5.66478,0.008 -0.21738,30.042452 c 0.79562,0.0248 1.46097,0.0483 2.39385,0.0734 1.81605,0.0489 3.88306,0.0972 6.16746,0.13778 2.28441,0.0406 4.78614,0.0734 7.47038,0.0935 1.34212,0.0101 2.73006,0.017 4.1593,0.0197 1.42923,0.003 2.89998,6.5e-4 4.40776,-0.006 1.50779,-0.006 3.05245,-0.0172 4.63023,-0.034 1.57777,-0.0169 3.18808,-0.0396 4.82729,-0.0684 1.6392,-0.0289 3.30748,-0.0642 4.99954,-0.10659 1.69206,-0.0424 3.40823,-0.0922 5.1446,-0.14968 1.73636,-0.0575 3.49275,-0.1224 5.26485,-0.19655 1.7721,-0.0742 3.55982,-0.15739 5.35909,-0.24968 1.79927,-0.0923 3.61004,-0.19396 5.42794,-0.30595 1.81788,-0.11199 3.64283,-0.234 5.47076,-0.36721 1.82793,-0.13321 3.65879,-0.27753 5.48821,-0.43349 1.82942,-0.15597 3.6573,-0.32388 5.47964,-0.50414 1.82233,-0.18026 3.63896,-0.3731 5.44566,-0.57918 1.8067,-0.20608 3.60379,-0.42515 5.38629,-0.65858 1.7825,-0.23344 3.55058,-0.48132 5.30031,-0.74364 0.87486,-0.13116 1.74512,-0.2659 2.61019,-0.40456 0.86507,-0.13868 1.72513,-0.28087 2.57933,-0.42724 0.8542,-0.14637 1.70257,-0.29689 2.54483,-0.45117 0.84225,-0.15426 1.67805,-0.31209 2.5073,-0.47443 0.82925,-0.16236 1.65219,-0.32901 2.46737,-0.49963 0.81516,-0.17063 1.62255,-0.34571 2.42257,-0.5248 0.80003,-0.1791 1.59219,-0.36221 2.37599,-0.54997 0.7838,-0.18774 1.55925,-0.37979 2.32576,-0.57639 0.76652,-0.1966 1.52437,-0.39779 2.27252,-0.60344 0.74815,-0.20564 1.48692,-0.4156 2.21564,-0.63048 0.72872,-0.21489 1.44752,-0.43449 2.15574,-0.6588 0.70822,-0.2243 1.40555,-0.45379 2.0922,-0.68771 0.68665,-0.23392 1.36226,-0.47229 2.02626,-0.71601 0.66401,-0.24374 1.31639,-0.49247 1.95668,-0.74621 0.1919,-0.0761 0.3875,-0.15955 0.58552,-0.24946 0.19803,-0.0899 0.39901,-0.18651 0.60239,-0.28926 0.40674,-0.20547 0.82289,-0.43533 1.24632,-0.68582 0.42345,-0.25047 0.85399,-0.52119 1.28787,-0.80828 0.43388,-0.28709 0.87144,-0.5908 1.30948,-0.90611 0.43806,-0.31533 0.87644,-0.64289 1.31241,-0.97806 0.43597,-0.33516 0.86958,-0.67808 1.29722,-1.02471 0.15346,-0.1244 0.30106,-0.25033 0.4529,-0.37547 a 59.098127,56.492583 89.91411 0 0 0.25142,-0.47611 59.098127,56.492583 89.91411 0 0 0.8927,-1.8393 59.098127,56.492583 89.91411 0 0 0.83039,-1.87076 59.098127,56.492583 89.91411 0 0 0.76805,-1.89968 59.098127,56.492583 89.91411 0 0 0.70333,-1.926722 59.098127,56.492583 89.91411 0 0 0.63919,-1.95186 59.098127,56.492583 89.91411 0 0 0.57386,-1.97321 59.098127,56.492583 89.91411 0 0 0.24586,-0.96572 59.098127,56.492583 89.91411 0 0 0.26147,-1.02759 59.098127,56.492583 89.91411 0 0 0.44018,-2.01087 59.098127,56.492583 89.91411 0 0 0.37365,-2.02528 59.098127,56.492583 89.91411 0 0 0.3053,-2.0378 59.098127,56.492583 89.91411 0 0 0.23697,-2.0478 59.098127,56.492583 89.91411 0 0 0.16864,-2.05526 59.098127,56.492583 89.91411 0 0 0.0458,-0.95091 59.098127,56.492583 89.91411 0 0 0.0539,-1.10929 59.098127,56.492583 89.91411 0 0 0.0314,-2.06263 59.098127,56.492583 89.91411 0 0 -0.082,-3.0928 59.098127,56.492583 89.91411 0 0 -0.2368,-3.08374 59.098127,56.492583 89.91411 0 0 -0.39096,-3.0671 59.098127,56.492583 89.91411 0 0 -0.54329,-3.04164 59.098127,56.492583 89.91411 0 0 -0.66455,-2.86163 59.098127,56.492583 89.91411 0 0 -0.80053,-2.82294 l -42.2468,0.0633 -13.09813,0.0196 -45.84739,0.0687 0.0738,-8.04916 0.0343,-3.72013 58.95216,-0.0884 z" />
    <path
       id="path18602"
       style="fill:#5d84b2;fill-opacity:1;stroke:#000000;stroke-width:1.26495;stroke-linecap:round;stroke-linejoin:round;stroke-miterlimit:4;stroke-dasharray:none"
       d="m 208.29602,19.754046 a 59.098127,56.492583 89.91411 0 0 -4.18915,0.235947 l -78.76654,0.118076 -0.10024,13.799696 c 0.9686,-0.007 1.95054,-0.0157 3.19727,-0.0206 1.6322,-0.006 3.4911,-0.009 5.54689,-0.006 2.05579,0.004 4.30865,0.014 6.72779,0.0334 2.41916,0.0195 5.00509,0.048 7.72735,0.0894 2.72226,0.0414 5.58098,0.0951 8.54612,0.16449 2.96514,0.0694 6.03638,0.15477 9.18416,0.25816 1.57389,0.0517 3.16678,0.10756 4.77504,0.16889 1.60825,0.0613 3.23189,0.12794 4.86698,0.19965 1.63509,0.0717 3.28158,0.14888 4.93597,0.23173 1.65439,0.0828 3.31641,0.17163 4.98257,0.26637 1.66617,0.0947 3.3364,0.19553 5.00681,0.30292 1.67042,0.10739 3.34157,0.22126 5.00869,0.34204 1.66713,0.12078 3.33066,0.24815 4.98698,0.38308 1.65631,0.13494 3.30494,0.27748 4.9429,0.42732 1.63798,0.14984 3.26498,0.30735 4.87708,0.47284 1.6121,0.1655 3.20957,0.33902 4.78827,0.52093 1.57869,0.1819 3.13872,0.37188 4.67648,0.57094 1.53776,0.19906 3.05303,0.40717 4.54233,0.62415 1.4893,0.216983 2.9525,0.442983 4.38581,0.678633 1.43331,0.23565 2.83714,0.48062 4.20693,0.7357 1.36979,0.25507 2.70573,0.52005 4.00446,0.79531 0.64937,0.13761 1.28955,0.27767 1.91975,0.42048 0.63018,0.14281 1.25042,0.28828 1.86049,0.43635 0.35756,0.0868 0.73342,0.1905 1.12448,0.30812 0.39106,0.11761 0.79698,0.24956 1.21409,0.39316 0.41711,0.14359 0.84559,0.29896 1.2813,0.46372 0.43572,0.16474 0.87926,0.33873 1.32613,0.5198 0.44689,0.18108 0.89738,0.36886 1.34797,0.56142 0.4506,0.19256 0.90115,0.38997 1.34801,0.58918 0.89371,0.39844 1.77244,0.80514 2.60656,1.20121 0.83411,0.39607 1.62367,0.78159 2.3386,1.13663 0.71494,0.35504 1.35532,0.6796 1.89153,0.95494 1.07238,0.55072 1.72757,0.90346 1.72757,0.90346 a 59.098127,56.492583 89.91411 0 0 -1.49361,-2.53545 59.098127,56.492583 89.91411 0 0 -1.61382,-2.45387 59.098127,56.492583 89.91411 0 0 -1.80427,-2.4517 59.098127,56.492583 89.91411 0 0 -1.92444,-2.34993 59.098127,56.492583 89.91411 0 0 -2.03917,-2.241233 59.098127,56.492583 89.91411 0 0 -2.14842,-2.12688 59.098127,56.492583 89.91411 0 0 -2.25164,-2.00557 59.098127,56.492583 89.91411 0 0 -2.3494,-1.87987 59.098127,56.492583 89.91411 0 0 -2.43989,-1.74913 59.098127,56.492583 89.91411 0 0 -2.52434,-1.61272 59.098127,56.492583 89.91411 0 0 -2.60152,-1.47252 59.098127,56.492583 89.91411 0 0 -2.67144,-1.32793 59.098127,56.492583 89.91411 0 0 -2.73472,-1.1802 59.098127,56.492583 89.91411 0 0 -2.7895,-1.028687 59.098127,56.492583 89.91411 0 0 -2.83704,-0.874031 59.098127,56.492583 89.91411 0 0 -2.87671,-0.718129 59.098127,56.492583 89.91411 0 0 -2.90912,-0.559708 59.098127,56.492583 89.91411 0 0 -2.93307,-0.399412 59.098127,56.492583 89.91411 0 0 -1.71548,-0.09144 59.098127,56.492583 89.91411 0 0 -4.18983,-0.223387 z" />
  </g>
</svg>
