<svg xmlns="http://www.w3.org/2000/svg" width="1em" height="1em" viewBox="0 0 26 26"><g fill="none"><defs><mask id="pepiconsPopSwordShieldCircleFilled0"><path fill="#fff" d="M0 0h26v26H0z"/><g fill="#000" fill-rule="evenodd" clip-rule="evenodd"><path d="M14.269 7.455a2 2 0 0 1 2.48 2.17l-.184 1.575a2 2 0 0 1-.481 1.086l-4.325 4.945a2 2 0 0 1-2.822.189l-1.355-1.185a2 2 0 0 1-.189-2.822l4.326-4.945a2 2 0 0 1 1.012-.622zm.31 3.514l.182-1.575l-1.537.39L8.9 14.73l1.354 1.185z"/><path d="M4.706 14.177a2.345 2.345 0 0 1 3.309-.22l3.123 2.73a2.345 2.345 0 0 1-3.088 3.531l-3.123-2.732a2.345 2.345 0 0 1-.221-3.309m1.992 1.285a.345.345 0 0 0-.454.519l3.123 2.732a.345.345 0 1 0 .454-.52z"/><path d="m7.34 17.72l-1.843 2.107l.21.184l1.844-2.107l1.505 1.317l-1.843 2.107a2 2 0 0 1-2.822.189l-.21-.185a2 2 0 0 1-.19-2.822l1.844-2.107zm8.008-11.423a3 3 0 0 0-2.696 0L9.516 7.874C8.57 8.35 7.99 9.25 8.002 10.212c.015 1.096.101 2.41.358 3.572l-1.952.432c-.3-1.352-.39-2.82-.405-3.977c-.025-1.82 1.072-3.376 2.614-4.152l3.137-1.577a5 5 0 0 1 4.492 0l3.137 1.577c1.543.776 2.639 2.332 2.614 4.152c-.022 1.677-.2 4.12-1.024 5.868c-.909 1.928-2.921 3.691-4.373 4.802a4.26 4.26 0 0 1-5.2 0a24.402 24.402 0 0 1-1.572-1.306l1.344-1.48c.486.44.983.845 1.443 1.197a2.26 2.26 0 0 0 2.77 0c1.438-1.1 3.094-2.613 3.779-4.066c.624-1.324.812-3.379.834-5.042c.012-.963-.57-1.863-1.514-2.338z"/></g></mask></defs><circle cx="13" cy="13" r="13" fill="currentColor" mask="url(#pepiconsPopSwordShieldCircleFilled0)"/></g></svg>