<svg id="Layer_1" data-name="Layer 1" xmlns="http://www.w3.org/2000/svg" viewBox="0 0 912.5 912.5"><defs><style>.cls-1{fill:#f2c423;}.cls-2{fill:#010101;}</style></defs><rect class="cls-1" width="912.5" height="912.5" rx="170.65"/><path class="cls-2" d="M480.27,127.29c-20.52,1.32-47.11,4.27-53,5.75-13,3.44-21.5,15.59-21.18,30.36.17,14.29,7.72,22.16,30.7,31.85,21.67,9,53.18,25.44,58,30.2,5.25,5.09,6.73,16.25,2.95,23.15s-9.36,9.85-23.15,12.15c-39.39,6.56-51.7,14.93-51.7,35.12,0,13.79,3.94,18.22,25.61,29.06,41.69,20.68,53.51,35.95,43.33,56-3.94,7.55-10.67,12.15-21.34,14.45-11.33,2.46-15.43,4.27-22,10.17-11.33,9.85-16.26,25.28-12.48,39.24,1,4.1,4.76,11.82,8.21,17.23a273.3,273.3,0,0,1,22.16,45c2.95,7.71,7.06,15.76,9,17.73,4.43,4.59,13,5.09,17.72.82,1.81-1.48,31.19-38.58,65.17-82.41,34.14-43.82,65.33-83.05,69.44-87.32A75.48,75.48,0,0,1,642.78,344c5.09-2.79,36.6-11.82,86.5-25,43-11.33,79.62-21.34,81.26-22.16,2.79-1.48,3.77-4.43,3-9.52-.33-3-16.25-24-29.38-38.74-21-23.64-52-49.9-77.48-65.66-46-28.4-102.59-47.77-156.6-53.19C530.66,127.78,493.07,126.47,480.27,127.29Z" transform="translate(-43.75 -44.47)"/><path class="cls-2" d="M262,131.4c-22.16,2-52.2,13.13-81.74,30.53-16.75,9.85-21.67,15.59-21.67,25.6,0,12.32,7.88,21,22.49,24.3,6.23,1.48,14.28,1.31,37.42-.82,38.08-3.61,80.93-10,89-13.3,18.39-7.71,24.95-25.11,15.92-43.17C313.82,135.34,295.6,128.61,262,131.4Z" transform="translate(-43.75 -44.47)"/><path class="cls-2" d="M738,351c-55.15,14.61-79.44,21.83-82.73,24.29-4.26,3.45-245.56,311.06-249,317.79-1.31,2.14,0,4.44,6.07,11,4.6,4.93,9,8.21,11.16,8.21,2.47,0,45.64-42.35,142.16-138.87,76.33-76.33,141-139.86,143.63-141,10.5-4.6,22.16,3.44,22.16,15.1,0,7.22,6.73.16-161.69,169.23-65.82,66.16-120.16,121-120.48,122-1,3.12,15.1,18.22,18.71,17.4,1.8-.33,18.06-12.15,36.11-26.27s89-69.43,157.42-122.94C754.4,534.38,786.9,508.12,789,503.85c3.94-7.55,42.52-154.63,42.52-161.69,0-6.23-6.24-12.47-12.15-12.14C817.6,330.18,780.83,339.54,738,351Z" transform="translate(-43.75 -44.47)"/><path class="cls-2" d="M311.69,380.9a38.5,38.5,0,0,0-18.06,19c-3.12,7.55-2.62,21.51,1,29.39,6.4,14.11,24.29,23.8,39.39,21.17,14.45-2.46,27.91-15.92,30.53-30.69,2.8-14.61-7.22-32.83-21.17-39.24C334.18,376.31,320.39,376.47,311.69,380.9Z" transform="translate(-43.75 -44.47)"/><path class="cls-2" d="M332.21,688.85c-6.24,6.73-7.88,10.83-7.88,20,0,12.15,2,15.76,18.05,32.18L357,756,316.78,802.6c-22,25.61-40.55,48.26-41,50.4-1.81,6.73,1,12.63,10.51,22.16,10.34,10.67,17.23,13.78,24,11.16,2.46-.82,20.52-15.43,40.05-32.34,19.7-17.07,40.38-34.8,46-39.72l10.34-8.87,14.28,14.12c18.38,18.22,28.89,22.49,42.51,17.4,6.4-2.3,15.27-11.33,15.27-15.27,0-2.3-22.82-26.26-66.81-70.25C339.27,678.83,340.58,679.82,332.21,688.85Z" transform="translate(-43.75 -44.47)"/></svg>