<?xml version="1.0" encoding="UTF-8" standalone="no"?>
<svg
   version="1.1"
   width="500"
   height="500"
   id="svg20"
   xmlns:xlink="http://www.w3.org/1999/xlink"
   xmlns="http://www.w3.org/2000/svg"
   xmlns:svg="http://www.w3.org/2000/svg">
  <defs
     id="defs20">
    <linearGradient
       id="linearGradient18">
      <stop
         style="stop-color:#ffffff;stop-opacity:1;"
         offset="0"
         id="stop17" />
    </linearGradient>
    <linearGradient
       id="swatch3">
      <stop
         style="stop-color:#000000;stop-opacity:1;"
         offset="0"
         id="stop2" />
    </linearGradient>
    <linearGradient
       id="swatch67">
      <stop
         style="stop-color:#fc4201;stop-opacity:1;"
         offset="0"
         id="stop67" />
    </linearGradient>
    <linearGradient
       id="swatch5">
      <stop
         style="stop-color:#fc4201;stop-opacity:1;"
         offset="0"
         id="stop5" />
    </linearGradient>
    <linearGradient
       id="swatch4">
      <stop
         style="stop-color:#ffffff;stop-opacity:1;"
         offset="0"
         id="stop4" />
    </linearGradient>
    <linearGradient
       xlink:href="#swatch3"
       id="linearGradient3"
       x1="636.88342"
       y1="337.367"
       x2="1188.5063"
       y2="337.367"
       gradientUnits="userSpaceOnUse" />
    <linearGradient
       xlink:href="#swatch3"
       id="linearGradient1"
       gradientUnits="userSpaceOnUse"
       x1="636.88342"
       y1="337.367"
       x2="1188.5063"
       y2="337.367" />
    <linearGradient
       xlink:href="#swatch3"
       id="linearGradient7"
       gradientUnits="userSpaceOnUse"
       x1="636.88342"
       y1="337.367"
       x2="1188.5063"
       y2="337.367" />
    <linearGradient
       xlink:href="#swatch3"
       id="linearGradient8"
       gradientUnits="userSpaceOnUse"
       x1="636.88342"
       y1="337.367"
       x2="1188.5063"
       y2="337.367" />
    <linearGradient
       xlink:href="#swatch3"
       id="linearGradient9"
       gradientUnits="userSpaceOnUse"
       x1="636.88342"
       y1="337.367"
       x2="1188.5063"
       y2="337.367" />
    <linearGradient
       xlink:href="#swatch3"
       id="linearGradient10"
       gradientUnits="userSpaceOnUse"
       x1="636.88342"
       y1="337.367"
       x2="1188.5063"
       y2="337.367" />
    <linearGradient
       xlink:href="#swatch3"
       id="linearGradient11"
       gradientUnits="userSpaceOnUse"
       x1="636.88342"
       y1="337.367"
       x2="1188.5063"
       y2="337.367" />
    <linearGradient
       xlink:href="#swatch3"
       id="linearGradient12"
       gradientUnits="userSpaceOnUse"
       x1="636.88342"
       y1="337.367"
       x2="1188.5063"
       y2="337.367" />
    <linearGradient
       xlink:href="#swatch3"
       id="linearGradient13"
       gradientUnits="userSpaceOnUse"
       x1="636.88342"
       y1="337.367"
       x2="1188.5063"
       y2="337.367" />
    <linearGradient
       xlink:href="#swatch3"
       id="linearGradient14"
       gradientUnits="userSpaceOnUse"
       x1="636.88342"
       y1="337.367"
       x2="1188.5063"
       y2="337.367" />
    <linearGradient
       xlink:href="#swatch3"
       id="linearGradient15"
       gradientUnits="userSpaceOnUse"
       x1="636.88342"
       y1="337.367"
       x2="1188.5063"
       y2="337.367" />
  </defs>
  <g
     id="g2"
     transform="matrix(0.70391518,0,0,0.70391518,-392.45979,12.522244)"
     style="fill:url(#linearGradient3)">
    <path
       d="m 1035.246,23.274016 c 18.3544,5.812246 35.6174,14.055676 50,27 l 2.0547,1.730469 c 23.5492,19.908086 39.1945,45.38242 49.2578,74.332035 l 0.6985,1.95898 c 4.2602,12.90434 5.4934,26.20477 5.3801,39.70801 -0.016,2.27047 0,4.53916 0.019,6.80957 0.058,40.75751 -18.7653,78.3193 -46.4102,107.46094 l -1.4004,1.49902 c -11.3967,12.13606 -24.3485,21.92616 -38.5996,30.50098 7.188,-2.2762 14.0921,-4.98077 21,-8 l 1.9072,-0.81543 c 17.1835,-7.40018 32.2855,-17.59505 46.0928,-30.18457 l 2.5976,-2.3125 c 7.7459,-7.26709 13.5814,-15.86539 19.4024,-24.6875 l 2.0703,-3.12891 c 12.2283,-19.71341 16.6456,-41.65265 17.4922,-64.49609 l 0.1308,-3.33203 c 0.1049,-2.6809 0.2071,-5.36187 0.3067,-8.04297 15.282,14.22578 19.9448,45.08919 21,65 l 0.1123,2.10303 c 1.6762,36.68496 -10.9129,74.57552 -35.5584,102.03467 -3.7442,4.06094 -7.6402,7.96572 -11.5539,11.8623 l -1.7879,1.85522 c -4.6581,4.78436 -9.5106,8.95666 -14.8996,12.89478 l -2.4727,1.80933 c -40.8737,29.3081 -91.0946,43.26633 -139.04685,56.13989 -3.94936,1.06267 -7.87231,2.19868 -11.79297,3.36328 -5.88842,1.70658 -11.82967,3.05091 -17.8125,4.375 -13.69593,3.04354 -26.9657,7.14095 -40.32202,11.40649 -4.51671,1.43737 -9.04223,2.78176 -13.61548,4.03101 -37.56899,10.64673 -86.57452,27.92591 -109.25,62.125 -2.90917,5.42387 -5.71567,10.94322 -7,17 h -2 c -5.93593,-19.04445 -4.46605,-39.34637 4.6167,-57.05542 12.46787,-23.05364 34.0001,-40.39415 56.40674,-53.23755 2.0336,-1.16625 4.02599,-2.40665 5.97656,-3.70703 -22.95193,7.32851 -44.91792,15.88842 -64,31 l -2.82812,2.17969 c -6.05755,4.78314 -11.34908,9.79182 -16.17188,15.82031 l -1.76562,2.19141 c -13.87802,18.47276 -19.87956,40.60698 -16.88721,63.45996 2.99301,18.24341 10.78249,36.13489 22.65283,50.34863 0.85231,1.0632 1.70383,2.12704 2.55469,3.19141 14.62724,18.04578 32.76405,30.55855 53.44531,40.80859 v 1 c -7.52829,-0.46123 -14.49828,-1.63174 -21.75,-3.6875 l -2.89893,-0.81104 c -8.04171,-2.3067 -15.71952,-5.0485 -23.35107,-8.50146 l -1.9585,-0.88184 c -10.18503,-4.64856 -19.20099,-10.26629 -28.0415,-17.11816 l -2.96484,-2.28516 c -24.26775,-19.29847 -38.35195,-42.7463 -45.03516,-72.71484 l -0.8125,-3.36719 c -6.17989,-29.61199 3.32941,-60.51838 19.021,-85.56152 5.34519,-8.15266 11.50189,-15.51403 18.28466,-22.51318 1.03478,-1.06999 2.06243,-2.14689 3.08399,-3.2295 13.17868,-13.96247 28.2846,-25.02566 44.42285,-35.32861 l 1.85449,-1.20605 c 30.44806,-19.7369 64.12202,-35.54799 97.54004,-49.44629 5.08625,-2.11726 10.09164,-4.3681 15.07422,-6.71875 4.99848,-2.30572 10.04902,-4.48915 15.09375,-6.69141 12.89239,-5.64243 25.65077,-11.54853 38.39258,-17.52148 2.5738,-1.19693 5.15531,-2.37026 7.74804,-3.5254 11.68365,-5.24594 22.60367,-11.71458 33.58838,-18.28076 2.29115,-1.3618 4.59272,-2.69937 6.90772,-4.02002 14.3643,-8.25499 27.7733,-18.11714 39.6484,-29.67578 4.3884,-4.32887 6.4854,-6.3186 10.2149,-9.91406 22.549,-22.18881 35.9499,-54.03078 36.2977,-85.52679 0.01,-1.49122 0.011,-2.98246 0.01,-4.4737 0,-2.23369 0.041,-4.46538 0.079,-6.69873 0.2637,-33.839986 -16.7448,-64.129638 -39.875,-87.781253 -2.1791,-2.186183 -4.3728,-4.355955 -6.5742,-6.519531 -1.3345,-1.332181 -2.6682,-2.665171 -4,-4 z"
       fill="#fdfcfc"
       id="path2"
       style="display:inline;fill:url(#linearGradient1);fill-opacity:1" />
    <path
       d="m 965.24598,449.27402 0.10425,3.0144 c 1.4072,39.20104 4.46057,78.38291 10.37158,117.17847 2.72825,17.93452 2.72825,17.93452 -2.16333,26.43213 l -1.19702,2.1626 c -1.35023,2.41706 -2.73024,4.81525 -4.11548,7.2124 l -1.57324,2.75195 c -5.99391,10.45807 -12.0437,20.70003 -19.42676,30.24805 -0.92446,1.24809 -1.84611,2.49826 -2.76563,3.75 -9.38228,12.73386 -17.56657,24.56758 -30.23437,36.25 -9.08365,-7.0405 -13.3351,-11.66059 -18.70948,-18.39307 -1.36999,-1.70588 -2.75684,-3.39708 -4.14599,-5.0874 -10.95605,-13.40184 -20.49202,-27.53787 -29.14453,-42.51953 l -1.52344,-2.63672 c -2.66883,-4.62896 -5.32755,-9.26368 -7.97265,-13.90625 l -1.31812,-2.31323 -1.18579,-2.1438 -1.14185,-2.04419 c -2.48053,-5.65335 -0.47463,-12.23846 0.89185,-17.95581 5.26018,-24.10877 6.25818,-49.53206 7.85547,-74.10937 l 0.20483,-2.93116 c 0.13413,-2.09247 0.23741,-4.18703 0.31885,-6.28222 l 0.16772,-3.26319 0.11622,-2.93896 c 0.58691,-2.4751 0.58691,-2.4751 2.4895,-4.18482 2.62744,-1.41751 5.26673,-2.33976 8.09741,-3.29028 1.80363,-0.72265 3.60726,-1.44531 5.41089,-2.16797 6.99974,-2.74247 14.1496,-5.01963 21.33911,-7.20703 l 2.59912,-0.79663 2.44775,-0.72681 2.16699,-0.64599 c 2.03614,-0.45557 2.03614,-0.45557 6.03614,-0.45557 l 0.0245,1.77847 c 0.46331,33.10535 1.3198,66.15355 2.97549,99.22153 l 2,1 0.0692,-2.74153 c 0.21885,-8.65944 0.43926,-17.31884 0.66129,-25.9782 0.11401,-4.44847 0.22748,-8.89694 0.33958,-13.34546 0.52079,-20.65047 1.08968,-41.29438 1.92993,-61.93481 1.25362,-0.47988 2.50821,-0.95725 3.76318,-1.43359 l 2.11679,-0.8064 c 12.70963,-4.55629 28.60653,-8.76001 42.12003,-8.76001 z"
       fill="#fdfbfb"
       id="path3"
       style="fill:url(#linearGradient7);fill-opacity:1" />
    <path
       d="m 847.24598,227.27402 h 2 v 65 l -24,9 c -4.70249,2.0233 -9.32492,4.0516 -13.9375,6.25 l -3.49707,1.64771 c -17.70237,8.41261 -35.28795,17.13478 -51.56543,28.10229 l -2.04248,1.36865 c -15.10659,10.19808 -29.37687,21.4122 -41.95752,34.63135 l -2.53516,2.53125 c -20.35011,20.38237 -37.78845,48.95001 -42.03125,77.71094 -0.38202,2.42979 -0.8767,4.75472 -1.49609,7.13281 -4.83014,18.67655 -2.60169,39.88966 1.0625,58.625 -4.34766,-3.97881 -7.33883,-8.27891 -10.375,-13.3125 l -1.45361,-2.40601 c -7.49002,-12.64994 -12.75847,-25.98055 -16.17139,-40.28149 l -0.5686,-2.36743 c -1.63178,-7.71447 -1.7704,-15.37159 -1.74707,-23.21973 0.003,-2.21168 -0.0204,-4.42202 -0.0457,-6.63354 -0.0409,-9.33444 0.9722,-17.71137 3.36133,-26.7793 l 0.73755,-2.80249 c 7.0736,-25.77203 24.32668,-51.58347 45.26249,-68.19751 1.13493,-0.9326 2.26896,-1.8663 3.40234,-2.80078 7.57989,-6.20671 15.28307,-11.99596 23.59766,-17.19922 l 3.33984,-2.10156 c 18.50831,-11.46324 37.90966,-21.20366 58.66016,-27.89844 -32.35107,5.31033 -65.87687,16.16853 -91,38 -1.20672,1.00194 -2.41482,2.00223 -3.625,3 l -2.375,2 -2,-1 c 1.94755,-2.84089 3.90977,-5.67132 5.875,-8.5 l 1.68359,-2.45703 1.6211,-2.32422 1.4917,-2.1582 c 12.97778,-18.13547 28.86084,-26.47718 48.32861,-36.56055 l 2.08301,-1.11377 c 9.39569,-5.01604 18.87938,-8.8357 28.96972,-12.21582 2.82821,-0.9737 5.60382,-2.06991 8.38477,-3.17041 10.6551,-4.13265 21.47799,-7.68846 32.50073,-10.70142 13.63396,-3.73524 27.51903,-8.34437 39.06177,-16.79858 z"
       fill="#fdfbfa"
       id="path4"
       style="fill:url(#linearGradient8);fill-opacity:1" />
    <path
       d="m 966.55457,159.83652 c 14.34226,5.37591 14.34226,5.37591 29.4414,6.875 0.77215,0.007 1.5443,0.0142 2.33985,0.0215 9.60188,-0.10454 18.59728,-3.8307 26.47268,-9.20898 3.3918,-1.73941 5.6706,-1.7126 9.4375,-1.25 4.004,2.11532 6.394,3.76142 8,8 0.6341,5.70742 0.8734,11.11332 -1.5625,16.375 -0.8044,0.86625 -1.6088,1.7325 -2.4375,2.625 -0.4164,0.53625 -0.8328,1.0725 -1.2618,1.625 -8.0224,9.4332 -23.3482,15.54487 -35.4335,16.61328 -16.95459,0.45889 -32.79428,-5.94351 -48.31254,-12.0625 -1.48113,-0.58201 -1.48113,-0.58201 -2.99219,-1.17578 -0.59063,-0.23646 -1.18126,-0.47292 -1.78979,-0.71655 -33.1271,-12.92127 -61.85918,-5.0242 -93.56177,7.89233 -7.5221,3.02504 -15.56152,5.11484 -23.64843,5.82422 -0.8843,0.0877 -1.7686,0.17531 -2.67969,0.26563 -13.29032,0.72914 -26.7467,-3.85767 -37.10938,-12.17969 -6.06551,-5.72258 -9.27485,-10.56138 -9.52343,-18.96094 0.0601,-5.83072 2.1205,-8.85741 6.125,-13 3.26155,-1.67737 5.53613,-1.45226 9.1875,-1.125 2.92378,1.20385 5.5602,2.78398 8.25,4.4375 1.39985,0.83403 2.80084,1.66615 4.20312,2.49609 0.61005,0.37182 1.2201,0.74363 1.84863,1.12671 9.41869,5.21169 24.94576,2.50386 34.8938,-0.21753 8.5977,-2.54409 16.94473,-5.88347 25.25366,-9.23339 31.99509,-12.33725 63.76491,-6.67931 94.85938,4.95312 z"
       fill="#FDFBFA"
       id="path5"
       style="fill:url(#linearGradient9);fill-opacity:1" />
    <path
       d="m 907.24598,195.27402 c 1.20995,59.46978 1.20995,59.46978 1,88 -5.51575,2.28311 -11.03335,4.56166 -16.55274,6.83594 -1.87845,0.77478 -3.75638,1.55082 -5.63379,2.32812 -2.69429,1.11528 -5.3904,2.22605 -8.08691,3.33594 -0.84275,0.34998 -1.68551,0.69996 -2.5538,1.06055 -0.78066,0.32033 -1.56132,0.64066 -2.36563,0.9707 -1.03259,0.42636 -1.03259,0.42636 -2.08603,0.86133 -1.7211,0.60742 -1.7211,0.60742 -3.7211,0.60742 -0.33,-30.69 -0.66,-61.38 -1,-93 27.78938,-11.11575 27.78938,-11.11575 41,-11 z"
       fill="#FDFBFA"
       id="path6"
       style="fill:url(#linearGradient10);fill-opacity:1" />
    <path
       d="m 1169.246,353.27402 c 1.4058,4.21755 -0.2822,6.9703 -1.9375,10.875 l -0.9717,2.30566 c -5.4102,12.48056 -13.019,22.78273 -22.0908,32.81934 l -1.9883,2.20703 c -10.0708,10.58833 -22.2752,18.78119 -35.0117,25.79297 l -1.8325,1.01807 c -20.6845,11.33418 -43.6296,18.25622 -66.4175,23.91943 l -2.0795,0.52029 c -12.4007,3.0948 -24.8632,5.75496 -37.42931,8.09665 -2.10118,0.41772 -4.16821,0.90652 -6.24121,1.44556 4.75247,-10.33437 16.75792,-17.6396 27.07132,-21.71069 4.1831,-1.52587 8.4246,-2.85254 12.6787,-4.16431 1.442,-0.4617 2.8834,-0.92524 4.3242,-1.39062 5.7066,-1.83264 11.4274,-3.59763 17.1914,-5.24219 5.7632,-1.71326 11.2219,-4.10987 16.7344,-6.49219 l 2.9726,-1.25488 c 32.4934,-13.73155 66.0823,-31.55722 88.2774,-59.93262 l 1.9531,-2.48047 c 1.6166,-2.09805 3.2148,-4.2079 4.7969,-6.33203 z"
       fill="#fdf9f7"
       id="path7"
       style="fill:url(#linearGradient11);fill-opacity:1" />
    <path
       d="m 919.24598,195.27402 c 14.66468,1.20045 26.10556,6.27876 40,12 -0.33,17.82 -0.66,35.64 -1,54 -35.7,17 -35.7,17 -40,17 -0.1141,-27.68651 -0.0362,-55.33036 1,-83 z"
       fill="#FDFCFB"
       id="path8"
       style="fill:url(#linearGradient12);fill-opacity:1" />
    <path
       d="m 925.62098,-0.85098432 c 6.7784,3.96729442 13.36623,10.46582542 15.625,18.12500032 1.13122,12.16429 -0.58617,20.570649 -8.1836,30.054687 -1.85312,1.984636 -3.47031,3.569241 -5.8164,4.945313 -1.97266,-0.144531 -1.97266,-0.144531 -4.0625,-0.8125 -7.25582,-1.930888 -13.99514,-2.144434 -20.9375,0.8125 -3.89984,0.102627 -5.82508,-1.506013 -8.5625,-4.0625 -3.41934,-3.627473 -5.55503,-7.349573 -7.4375,-11.9375 -0.4125,-0.94875 -0.825,-1.8975 -1.25,-2.875 -2.0114,-8.380807 -0.90592,-15.590083 3.25,-23.125 8.30391,-12.5770065 23.26259,-17.2799436 37.375,-11.12500032 z"
       fill="#FDFBFA"
       id="path9"
       style="fill:url(#linearGradient13);fill-opacity:1" />
    <path
       d="m 910.18739,87.020106 c 3.0675,-0.121447 6.00115,-0.01002 9.05859,0.253906 1.31678,0.110215 1.31678,0.110215 2.66016,0.222656 2.70404,0.523221 4.22626,0.996496 6.33984,2.777344 1.22413,3.135963 1.78456,6.142553 2.34375,9.460933 1.91403,10.322075 7.59622,21.536835 14.35547,29.554695 1.6775,2.55907 1.60782,4.20605 1.48828,7.23438 -0.0406,1.33804 -0.0406,1.33804 -0.082,2.70312 -0.0348,0.67547 -0.0696,1.35094 -0.10547,2.04688 -4.2905,-0.57318 -8.50017,-1.29207 -12.74414,-2.15576 -18.73385,-3.68398 -35.91017,-1.54303 -54.25586,3.15576 -0.55259,-8.84147 2.65544,-14.64543 7.4375,-21.875 5.16105,-7.82271 8.15903,-14.76303 9.75,-24.062505 1.23246,-5.572292 1.23246,-5.572292 3.57813,-7.554691 3.36552,-1.271152 6.61242,-1.454124 10.17578,-1.761718 z"
       fill="#FDFAF9"
       id="path10"
       style="fill:url(#linearGradient14);fill-opacity:1" />
    <path
       d="m 912.18348,57.149016 c 1.74603,-0.0039 1.74603,-0.0039 3.52734,-0.0078 9.74868,0.366249 9.74868,0.366249 13.00391,3.539063 6.16153,9.384494 6.16153,9.384494 5.71875,14.59375 -0.72524,3.222617 -1.81348,5.625975 -4.1875,8 -6.75,-0.875 -6.75,-0.875 -9,-2 -2.80352,-0.124794 -5.57134,-0.185171 -8.375,-0.1875 -0.76828,-0.01225 -1.53656,-0.02449 -2.32813,-0.03711 -4.00647,-0.0104 -6.79017,0.09524 -10.29687,2.224609 -2.5625,-0.0625 -2.5625,-0.0625 -5,-1 -2.87485,-3.271379 -3.63184,-6.52444 -3.5,-10.875 0.80661,-3.428083 2.82975,-5.729182 5.08984,-8.363282 1.62058,-1.816384 1.62058,-1.816384 2.41016,-4.761717 4.36504,-0.837133 8.49499,-1.134818 12.9375,-1.125 z"
       fill="#FDF9F7"
       id="path11"
       style="fill:url(#linearGradient15);fill-opacity:1" />
  </g>
</svg>
